<svg width="28" height="28" viewBox="0 0 28 28" fill="none" xmlns="http://www.w3.org/2000/svg">
<path d="M7.64815 3.5H4.01852C3.73215 3.5 3.5 3.73215 3.5 4.01852V7.64815C3.5 7.93452 3.73215 8.16667 4.01852 8.16667H7.64815C7.93452 8.16667 8.16667 7.93452 8.16667 7.64815V4.01852C8.16667 3.73215 7.93452 3.5 7.64815 3.5Z" stroke="white" stroke-width="0.8" stroke-linecap="round" stroke-linejoin="round"/>
<path d="M7.64815 19.8333H4.01852C3.73215 19.8333 3.5 20.0654 3.5 20.3518V23.9814C3.5 24.2678 3.73215 24.4999 4.01852 24.4999H7.64815C7.93452 24.4999 8.16667 24.2678 8.16667 23.9814V20.3518C8.16667 20.0654 7.93452 19.8333 7.64815 19.8333Z" stroke="white" stroke-width="0.8" stroke-linecap="round" stroke-linejoin="round"/>
<path d="M7.64815 11.6667H4.01852C3.73215 11.6667 3.5 11.8989 3.5 12.1853V15.8149C3.5 16.1013 3.73215 16.3334 4.01852 16.3334H7.64815C7.93452 16.3334 8.16667 16.1013 8.16667 15.8149V12.1853C8.16667 11.8989 7.93452 11.6667 7.64815 11.6667Z" stroke="white" stroke-width="0.8" stroke-linecap="round" stroke-linejoin="round"/>
<path d="M15.8148 3.5H12.1851C11.8988 3.5 11.6666 3.73215 11.6666 4.01852V7.64815C11.6666 7.93452 11.8988 8.16667 12.1851 8.16667H15.8148C16.1011 8.16667 16.3333 7.93452 16.3333 7.64815V4.01852C16.3333 3.73215 16.1011 3.5 15.8148 3.5Z" stroke="white" stroke-width="0.8" stroke-linecap="round" stroke-linejoin="round"/>
<path d="M15.8148 19.8333H12.1851C11.8988 19.8333 11.6666 20.0654 11.6666 20.3518V23.9814C11.6666 24.2678 11.8988 24.4999 12.1851 24.4999H15.8148C16.1011 24.4999 16.3333 24.2678 16.3333 23.9814V20.3518C16.3333 20.0654 16.1011 19.8333 15.8148 19.8333Z" stroke="white" stroke-width="0.8" stroke-linecap="round" stroke-linejoin="round"/>
<path d="M15.8148 11.6667H12.1851C11.8988 11.6667 11.6666 11.8989 11.6666 12.1853V15.8149C11.6666 16.1013 11.8988 16.3334 12.1851 16.3334H15.8148C16.1011 16.3334 16.3333 16.1013 16.3333 15.8149V12.1853C16.3333 11.8989 16.1011 11.6667 15.8148 11.6667Z" stroke="white" stroke-width="0.8" stroke-linecap="round" stroke-linejoin="round"/>
<path d="M23.9815 3.5H20.3519C20.0655 3.5 19.8334 3.73215 19.8334 4.01852V7.64815C19.8334 7.93452 20.0655 8.16667 20.3519 8.16667H23.9815C24.2679 8.16667 24.5 7.93452 24.5 7.64815V4.01852C24.5 3.73215 24.2679 3.5 23.9815 3.5Z" stroke="white" stroke-width="0.8" stroke-linecap="round" stroke-linejoin="round"/>
<path d="M23.9815 19.8333H20.3519C20.0655 19.8333 19.8334 20.0654 19.8334 20.3518V23.9814C19.8334 24.2678 20.0655 24.4999 20.3519 24.4999H23.9815C24.2679 24.4999 24.5 24.2678 24.5 23.9814V20.3518C24.5 20.0654 24.2679 19.8333 23.9815 19.8333Z" stroke="white" stroke-width="0.8" stroke-linecap="round" stroke-linejoin="round"/>
<path d="M23.9815 11.6667H20.3519C20.0655 11.6667 19.8334 11.8989 19.8334 12.1853V15.8149C19.8334 16.1013 20.0655 16.3334 20.3519 16.3334H23.9815C24.2679 16.3334 24.5 16.1013 24.5 15.8149V12.1853C24.5 11.8989 24.2679 11.6667 23.9815 11.6667Z" stroke="white" stroke-width="0.8" stroke-linecap="round" stroke-linejoin="round"/>
</svg>
